Coordinates
version=1
nRows=24
nColumns=24
inDegrees=yes

Units are S.I. units (second, meters, Newtons, ...)
Angles are in degrees.

endheader
time	pelvis_tilt	pelvis_list	pelvis_rotation	pelvis_tx	pelvis_ty	pelvis_tz	hip_flexion_r	hip_adduction_r	hip_rotation_r	knee_angle_r	ankle_angle_r	subtalar_angle_r	mtp_angle_r	hip_flexion_l	hip_adduction_l	hip_rotation_l	knee_angle_l	ankle_angle_l	subtalar_angle_l	mtp_angle_l	lumbar_extension	lumbar_bending	lumbar_rotation
      4.05000000	     -1.05216244	     -2.58754100	    -10.23502210	     -0.80417246	      0.90280125	      0.24600938	     -9.43417956	      7.25468062	     13.86043357	    -25.82768254	     26.25725773	    -10.92807909	      0.00000000	     30.66458877	     -3.69236746	     -5.90884004	    -11.37518556	     10.16216389	    -10.82131665	      0.00000000	    -11.41510833	     -0.59201994	      2.08937602
      4.05500000	     -1.06468118	     -2.32683613	    -10.15775212	     -0.79605555	      0.90186036	      0.24560692	     -9.44190223	      6.84957458	     13.27132501	    -26.66237767	     26.01303050	    -10.22084211	      0.00000000	     30.90554764	     -3.38782507	     -6.13996609	    -12.47862200	      9.65255210	    -11.35251467	      0.00000000	    -11.25731041	     -0.90731886	      2.01550090
      4.06000000	     -1.08245623	     -2.02573751	    -10.07134929	     -0.78798374	      0.90101888	      0.24523405	     -9.37250967	      6.40289509	     12.60381933	    -27.59402261	     25.70386369	     -9.46939489	      0.00000000	     31.15725470	     -3.04563094	     -6.33979926	    -13.58891205	      9.02655613	    -11.89672736	      0.00000000	    -11.09425432	     -1.28466998	      1.90731371
      4.06500000	     -1.10823464	     -1.66448836	     -9.94738171	     -0.77989406	      0.90027639	      0.24477068	     -9.22848625	      5.89922411	     11.89702707	    -28.62028646	     25.28670718	     -8.72570778	      0.00000000	     31.42235825	     -2.62494035	     -6.51742555	    -14.68834367	      8.32989351	    -12.41906238	      0.00000000	    -10.91706090	     -1.71749178	      1.76715741
      4.07000000	     -1.14534671	     -1.29269060	     -9.82576944	     -0.77193534	      0.89962217	      0.24423346	     -8.97490857	      5.36688814	     11.10060751	    -29.78840909	     24.81255129	     -7.85981212	      0.00000000	     31.70866680	     -2.18052864	     -6.58597554	    -15.78773409	      7.55613076	    -13.03103545	      0.00000000	    -10.75396290	     -2.15810986	      1.61090965
      4.07500000	     -1.19130875	     -0.83287416	     -9.65837520	     -0.76390248	      0.89909645	      0.24369702	     -8.66003296	      4.75564189	     10.27826721	    -31.01649771	     24.18690613	     -7.09085234	      0.00000000	     32.01083656	     -1.63706404	     -6.66395447	    -16.88453742	      6.79205460	    -13.49808209	      0.00000000	    -10.55643816	     -2.70740078	      1.42118496
      4.08000000	     -1.23945045	     -0.33338811	     -9.48106807	     -0.75588269	      0.89867160	      0.24315010	     -8.27207252	      4.09673327	      9.42674090	    -32.34303640	     23.44122406	     -6.34334273	      0.00000000	     32.32575200	     -1.04637880	     -6.71455956	    -18.00026498	      6.08913204	    -13.89233302	      0.00000000	    -10.35807817	     -3.30748532	      1.20117416
      4.08500000	     -1.28982415	      0.19977894	     -9.28962965	     -0.74784816	      0.89834041	      0.24257884	     -7.81634533	      3.39468001	      8.55874930	    -33.76269864	     22.56619285	     -5.61321217	      0.00000000	     32.64471360	     -0.40793291	     -6.71627057	    -19.12672238	      5.45900810	    -14.21726155	      0.00000000	    -10.15436184	     -3.94417610	      0.96551082
      4.09000000	     -1.32823790	      0.74554711	     -9.09596993	     -0.73981210	      0.89810958	      0.24201961	     -7.31143444	      2.66672270	      7.68512194	    -35.26888604	     21.54321664	     -4.93673877	      0.00000000	     32.94962647	      0.25061759	     -6.69086786	    -20.26575711	      4.92662715	    -14.45386952	      0.00000000	     -9.96753690	     -4.60363080	      0.72121697
      4.09500000	     -1.33710968	      1.31684713	     -8.87821104	     -0.73166533	      0.89800520	      0.24151093	     -6.80530956	      1.91873368	      6.86122230	    -36.82217855	     20.32208874	     -4.39193465	      0.00000000	     33.20025809	      0.94416093	     -6.69041080	    -21.38426429	      4.55697837	    -14.52077255	      0.00000000	     -9.80099588	     -5.30952343	      0.42955933
      4.10000000	     -1.36473802	      1.85790343	     -8.69108915	     -0.72366843	      0.89785847	      0.24085866	     -6.17742994	      1.14738992	      5.97878387	    -38.51858706	     19.07638424	     -3.71689956	      0.00000000	     33.47403799	      1.62870351	     -6.56624441	    -22.51078421	      4.19410812	    -14.73487917	      0.00000000	     -9.64952342	     -5.95708693	      0.22512552
      4.10500000	     -1.37161755	      2.39301765	     -8.49331240	     -0.71553432	      0.89784514	      0.24023289	     -5.54953658	      0.37760034	      5.15308153	    -40.23610459	     17.59639653	     -3.17210255	      0.00000000	     33.66583885	      2.31854811	     -6.46049357	    -23.55254697	      3.94978154	    -14.86173811	      0.00000000	     -9.50231617	     -6.59972947	      0.00802732
      4.11000000	     -1.31140983	      2.92078552	     -8.30388605	     -0.70734252	      0.89796950	      0.23971637	     -4.96944550	     -0.37886870	      4.41680090	    -41.96657462	     15.92013736	     -2.86237388	      0.00000000	     33.74291753	      2.99385082	     -6.41988121	    -24.54195201	      3.89333645	    -14.83955764	      0.00000000	     -9.42990473	     -7.25752532	     -0.23069151
      4.11500000	     -1.29344285	      3.44541672	     -8.10512229	     -0.69927639	      0.89797991	      0.23898547	     -4.25996112	     -1.17721643	      3.64701951	    -43.80847860	     14.26538626	     -2.42375458	      0.00000000	     33.84577141	      3.69969090	     -6.30255326	    -25.47559877	      3.80781790	    -14.98621869	      0.00000000	     -9.34210009	     -7.87739229	     -0.44028668
      4.12000000	     -1.20601838	      3.92407961	     -7.93155346	     -0.69108452	      0.89819615	      0.23837766	     -3.62740326	     -1.91785729	      2.99156477	    -45.60210952	     12.35604735	     -2.27887119	      0.00000000	     33.78685703	      4.34918907	     -6.26296120	    -26.29450953	      3.94052913	    -15.01416980	      0.00000000	     -9.31436259	     -8.45870323	     -0.62860329
      4.12500000	     -1.17770119	      4.42034071	     -7.72274212	     -0.68300596	      0.89828223	      0.23755211	     -2.86713626	     -2.70524174	      2.31945083	    -47.46630782	     10.50345757	     -2.05983613	      0.00000000	     33.76474543	      5.05144238	     -6.17728170	    -27.03936630	      4.04145367	    -15.18949462	      0.00000000	     -9.24719513	     -9.02537754	     -0.84090759
      4.13000000	     -1.06775316	      4.86788328	     -7.54420967	     -0.67490754	      0.89856562	      0.23686112	     -2.19318816	     -3.42217303	      1.77271904	    -49.26868439	      8.49122984	     -2.13799713	      0.00000000	     33.58621051	      5.68836860	     -6.16365167	    -27.70021461	      4.37267130	    -15.20129949	      0.00000000	     -9.27571533	     -9.55487615	     -1.02560528
      4.13500000	     -0.99114866	      5.31941048	     -7.33921212	     -0.66688604	      0.89882242	      0.23607183	     -1.44824715	     -4.14579080	      1.25262363	    -51.07501575	      6.50359272	     -2.26765692	      0.00000000	     33.40410282	      6.34552007	     -6.14529356	    -28.28273896	      4.72177193	    -15.24477978	      0.00000000	     -9.28196521	    -10.06715943	     -1.25102778
      4.14000000	     -0.90101792	      5.74472156	     -7.13820070	     -0.65889488	      0.89910851	      0.23524471	     -0.69793756	     -4.84628353	      0.77117912	    -52.85043196	      4.54827299	     -2.53331193	      0.00000000	     33.15525439	      6.98523047	     -6.13446937	    -28.78849859	      5.21361339	    -15.26957932	      0.00000000	     -9.31112281	    -10.53784098	     -1.45389635
      4.14500000	     -0.84924015	      6.15000389	     -6.92046703	     -0.65100782	      0.89941341	      0.23439172	      0.11511098	     -5.49958807	      0.36392764	    -54.59022136	      2.62750025	     -2.92519908	      0.00000000	     32.91267447	      7.60444382	     -6.13204801	    -29.23575901	      5.72167012	    -15.26711589	      0.00000000	     -9.31656968	    -10.97075678	     -1.70657572
      4.15000000	     -0.77422010	      6.54674871	     -6.70496131	     -0.64314814	      0.89976800	      0.23350568	      0.91769216	     -6.14909164	     -0.01631573	    -56.28541658	      0.84902782	     -3.40498908	      0.00000000	     32.59572050	      8.22347340	     -6.12138197	    -29.60883080	      6.35098224	    -15.21072582	      0.00000000	     -9.35144854	    -11.38427804	     -1.92796533
      4.15500000	     -0.72055581	      6.91155964	     -6.48348852	     -0.63540409	      0.90016108	      0.23264306	      1.76067160	     -6.73800304	     -0.33439570	    -57.93234582	     -0.79580051	     -3.98742974	      0.00000000	     32.27240982	      8.80211320	     -6.12669468	    -29.93775528	      7.00518396	    -15.12168308	      0.00000000	     -9.38164439	    -11.75757331	     -2.18356848
      4.16000000	     -0.71082032	      7.22300847	     -6.25482488	     -0.62781584	      0.90056091	      0.23179827	      2.67077442	     -7.23631064	     -0.58966684	    -59.53246075	     -2.28075854	     -4.66807704	      0.00000000	     31.98194382	      9.31197912	     -6.14610212	    -30.25436863	      7.68103571	    -14.97100080	      0.00000000	     -9.38654332	    -12.06180028	     -2.43921610
      4.16500000	     -0.68298636	      7.54902368	     -6.03071943	     -0.62022839	      0.90102701	      0.23092173	      3.56736513	     -7.74682506	     -0.80297628	    -61.07702019	     -3.45474885	     -5.32564481	      0.00000000	     31.62898014	      9.84485636	     -6.13755783	    -30.50205234	      8.39851372	    -14.79218761	      0.00000000	     -9.40382516	    -12.36842171	     -2.69717307
